# xmcd CD database file
#
# Track frame offsets:
#	150
#	11436
#	24627
#	38320
#	50096
#	62171
#	73921
#	86230
#	99702
#	112094
#	126560
#	140995
#	155878
#	170402
#	184737
#	198560
#	209477
#	223185
#	236561
#	250856
#	265840
#	280378
#	294203
#
# Disc length: 4088 seconds
#
# Revision: 1
# Processed by: cddbd v1.5.1PL0 Copyright (c) Steve Scherf et al.
# Submitted via: CDex 1.51
#
DISCID=740ff617
DTITLE=Ma Rainey - Ma Rainy - Blues Archive CD 2
DYEAR=1900
DGENRE=Blues
TTITLE0=Black Cat Hoot Owl Blues
TTITLE1=Log Camp Blues
TTITLE2=Hear Me Talking To You
TTITLE3=Hustlin' Blues
TTITLE4=Prove It On Me Blues
TTITLE5=Victim Of The Blues
TTITLE6=Traveling Blues
TTITLE7=Deep Moaning Blues (Take One)
TTITLE8=Deep Moaning Blues (Take Two)
TTITLE9=Daddy Goodbye Blues
TTITLE10=Sleep Talking Blues (Take 1)
TTITLE11=Sleep Talking Blues (Take 2)
TTITLE12=Tough Luck Blues
TTITLE13=Blame It On The Blues
TTITLE14=Sweet Rough Man
TTITLE15=Runaway Blues
TTITLE16=Screech Owl Blues
TTITLE17=Black Dust Blues
TTITLE18=Leaving This Morning
TTITLE19=Black Eye Blues (Take 1)
TTITLE20=Black Eye Blues (Take 2)
TTITLE21=Ma And Pa Poorhouse Blues (Duet with Papa Charlie Jackson)
TTITLE22=Big Feeling Blues (Duet with Papa Charlie Jackson)
EXTD=
EXTT0=
EXTT1=
EXTT2=
EXTT3=
EXTT4=
EXTT5=
EXTT6=
EXTT7=
EXTT8=
EXTT9=
EXTT10=
EXTT11=
EXTT12=
EXTT13=
EXTT14=
EXTT15=
EXTT16=
EXTT17=
EXTT18=
EXTT19=
EXTT20=
EXTT21=
EXTT22=
PLAYORDER=
